<mxfile host="65bd71144e">
    <diagram id="-A3PZO9tsgj58SaUb58m" name="Page-1">
        <mxGraphModel dx="829" dy="593" grid="0" gridSize="10" guides="1" tooltips="1" connect="1" arrows="1" fold="1" page="1" pageScale="1" pageWidth="850" pageHeight="1100" background="#000000" math="0" shadow="0">
            <root>
                <mxCell id="0"/>
                <mxCell id="1" parent="0"/>
                <mxCell id="2" value="&lt;b&gt;&lt;font color=&quot;#000000&quot; style=&quot;font-size: 20px;&quot;&gt;Users&lt;/font&gt;&lt;/b&gt;" style="shape=ext;double=1;rounded=0;whiteSpace=wrap;html=1;fillColor=#0050ef;fontColor=#ffffff;strokeColor=#001DBC;" parent="1" vertex="1">
                    <mxGeometry x="10" y="150" width="170" height="60" as="geometry"/>
                </mxCell>
                <mxCell id="5" value="&lt;b&gt;&lt;font color=&quot;#000000&quot; style=&quot;font-size: 20px;&quot;&gt;Tasks&lt;/font&gt;&lt;/b&gt;" style="shape=ext;double=1;rounded=0;whiteSpace=wrap;html=1;fillColor=#0050ef;fontColor=#ffffff;strokeColor=#001DBC;" parent="1" vertex="1">
                    <mxGeometry x="340" y="150" width="170" height="60" as="geometry"/>
                </mxCell>
                <mxCell id="6" value="&lt;b&gt;&lt;font color=&quot;#000000&quot; style=&quot;font-size: 20px;&quot;&gt;Projects&lt;/font&gt;&lt;/b&gt;" style="shape=ext;double=1;rounded=0;whiteSpace=wrap;html=1;fillColor=#0050ef;fontColor=#ffffff;strokeColor=#001DBC;" parent="1" vertex="1">
                    <mxGeometry x="660" y="150" width="170" height="60" as="geometry"/>
                </mxCell>
                <mxCell id="7" value="&lt;font color=&quot;#000000&quot;&gt;&lt;span style=&quot;font-size: 20px;&quot;&gt;&lt;b&gt;Activities&lt;br&gt;&lt;/b&gt;&lt;/span&gt;&lt;/font&gt;" style="shape=ext;double=1;rounded=0;whiteSpace=wrap;html=1;fillColor=#0050ef;fontColor=#ffffff;strokeColor=#001DBC;" parent="1" vertex="1">
                    <mxGeometry x="340" y="340" width="170" height="60" as="geometry"/>
                </mxCell>
                <mxCell id="9" value="" style="endArrow=classic;html=1;fontSize=20;fontColor=#000000;exitX=0;exitY=0.5;exitDx=0;exitDy=0;entryX=1;entryY=0.5;entryDx=0;entryDy=0;curved=1;strokeWidth=4;" parent="1" source="6" target="5" edge="1">
                    <mxGeometry width="50" height="50" relative="1" as="geometry">
                        <mxPoint x="570" y="160" as="sourcePoint"/>
                        <mxPoint x="620" y="110" as="targetPoint"/>
                    </mxGeometry>
                </mxCell>
                <mxCell id="12" value="" style="endArrow=classic;startArrow=classic;html=1;strokeWidth=4;fontSize=20;fontColor=#000000;curved=1;exitX=1;exitY=0.5;exitDx=0;exitDy=0;entryX=0;entryY=0.5;entryDx=0;entryDy=0;shadow=0;" parent="1" source="2" target="5" edge="1">
                    <mxGeometry width="50" height="50" relative="1" as="geometry">
                        <mxPoint x="460" y="310" as="sourcePoint"/>
                        <mxPoint x="510" y="260" as="targetPoint"/>
                    </mxGeometry>
                </mxCell>
                <mxCell id="13" value="" style="endArrow=classic;html=1;fontSize=20;fontColor=#000000;exitX=0.5;exitY=1;exitDx=0;exitDy=0;entryX=0.5;entryY=0;entryDx=0;entryDy=0;curved=1;strokeWidth=4;" parent="1" source="5" target="7" edge="1">
                    <mxGeometry width="50" height="50" relative="1" as="geometry">
                        <mxPoint x="670" y="270" as="sourcePoint"/>
                        <mxPoint x="520" y="270" as="targetPoint"/>
                    </mxGeometry>
                </mxCell>
                <mxCell id="15" value="" style="endArrow=classic;html=1;fontSize=20;fontColor=#000000;exitX=0.5;exitY=1;exitDx=0;exitDy=0;curved=1;strokeWidth=4;entryX=0;entryY=0.5;entryDx=0;entryDy=0;" parent="1" source="2" target="7" edge="1">
                    <mxGeometry width="50" height="50" relative="1" as="geometry">
                        <mxPoint x="240" y="220" as="sourcePoint"/>
                        <mxPoint x="95" y="340" as="targetPoint"/>
                    </mxGeometry>
                </mxCell>
                <mxCell id="16" value="&lt;font style=&quot;font-size: 13px;&quot; color=&quot;#ff0080&quot;&gt;M&lt;/font&gt;" style="text;html=1;align=center;verticalAlign=middle;resizable=0;points=[];autosize=1;strokeColor=none;fillColor=none;fontSize=20;fontColor=#000000;" parent="1" vertex="1">
                    <mxGeometry x="195" y="140" width="30" height="40" as="geometry"/>
                </mxCell>
                <mxCell id="17" value="&lt;font style=&quot;font-size: 13px;&quot; color=&quot;#ff0080&quot;&gt;M&lt;/font&gt;" style="text;html=1;align=center;verticalAlign=middle;resizable=0;points=[];autosize=1;strokeColor=none;fillColor=none;fontSize=20;fontColor=#000000;" parent="1" vertex="1">
                    <mxGeometry x="300" y="140" width="30" height="40" as="geometry"/>
                </mxCell>
                <mxCell id="20" value="&lt;font style=&quot;font-size: 14px;&quot; color=&quot;#ff0080&quot;&gt;1&lt;/font&gt;" style="text;html=1;align=center;verticalAlign=middle;resizable=0;points=[];autosize=1;strokeColor=none;fillColor=none;fontSize=20;fontColor=#000000;" parent="1" vertex="1">
                    <mxGeometry x="630" y="140" width="30" height="40" as="geometry"/>
                </mxCell>
                <mxCell id="21" value="&lt;font style=&quot;font-size: 13px;&quot; color=&quot;#ff0080&quot;&gt;M&lt;/font&gt;" style="text;html=1;align=center;verticalAlign=middle;resizable=0;points=[];autosize=1;strokeColor=none;fillColor=none;fontSize=20;fontColor=#000000;" parent="1" vertex="1">
                    <mxGeometry x="430" y="290" width="30" height="40" as="geometry"/>
                </mxCell>
                <mxCell id="22" value="&lt;font style=&quot;font-size: 15px;&quot; color=&quot;#ff0080&quot;&gt;1&lt;/font&gt;" style="text;html=1;align=center;verticalAlign=middle;resizable=0;points=[];autosize=1;strokeColor=none;fillColor=none;fontSize=20;fontColor=#000000;" parent="1" vertex="1">
                    <mxGeometry x="425" y="210" width="30" height="40" as="geometry"/>
                </mxCell>
                <mxCell id="23" value="&lt;font style=&quot;font-size: 15px;&quot; color=&quot;#ff0080&quot;&gt;1&lt;/font&gt;" style="text;html=1;align=center;verticalAlign=middle;resizable=0;points=[];autosize=1;strokeColor=none;fillColor=none;fontSize=20;fontColor=#000000;" parent="1" vertex="1">
                    <mxGeometry x="155" y="215" width="30" height="40" as="geometry"/>
                </mxCell>
                <mxCell id="25" value="&lt;font style=&quot;font-size: 13px;&quot; color=&quot;#ff0080&quot;&gt;M&lt;/font&gt;" style="text;html=1;align=center;verticalAlign=middle;resizable=0;points=[];autosize=1;strokeColor=none;fillColor=none;fontSize=20;fontColor=#000000;" parent="1" vertex="1">
                    <mxGeometry x="531" y="142" width="29" height="36" as="geometry"/>
                </mxCell>
                <mxCell id="29" value="&lt;font style=&quot;font-size: 13px;&quot; color=&quot;#ff0080&quot;&gt;M&lt;/font&gt;" style="text;html=1;align=center;verticalAlign=middle;resizable=0;points=[];autosize=1;strokeColor=none;fillColor=none;fontSize=20;fontColor=#000000;" parent="1" vertex="1">
                    <mxGeometry x="300" y="310" width="30" height="40" as="geometry"/>
                </mxCell>
                <mxCell id="34" value="&lt;font style=&quot;font-size: 14px;&quot; color=&quot;#9933ff&quot;&gt;ðŸ“™Embedding&lt;/font&gt;" style="text;html=1;align=center;verticalAlign=middle;resizable=0;points=[];autosize=1;strokeColor=none;fillColor=none;fontSize=16;fontColor=#FF0080;" parent="1" vertex="1">
                    <mxGeometry x="739" y="255" width="110" height="30" as="geometry"/>
                </mxCell>
                <mxCell id="37" value="&lt;font style=&quot;font-size: 14px;&quot; color=&quot;#9933ff&quot;&gt;2-way referencing&lt;/font&gt;" style="text;html=1;align=center;verticalAlign=middle;resizable=0;points=[];autosize=1;strokeColor=none;fillColor=none;fontSize=16;fontColor=#FF0080;" parent="1" vertex="1">
                    <mxGeometry x="200" y="120" width="130" height="30" as="geometry"/>
                </mxCell>
                <mxCell id="39" value="&lt;font color=&quot;#9933ff&quot;&gt;&lt;span style=&quot;font-size: 14px;&quot;&gt;Parent &lt;br&gt;referencing&lt;/span&gt;&lt;/font&gt;" style="text;html=1;align=center;verticalAlign=middle;resizable=0;points=[];autosize=1;strokeColor=none;fillColor=none;fontSize=16;fontColor=#FF0080;" parent="1" vertex="1">
                    <mxGeometry x="430" y="250" width="90" height="50" as="geometry"/>
                </mxCell>
                <mxCell id="40" value="&lt;font color=&quot;#9933ff&quot;&gt;&lt;span style=&quot;font-size: 14px;&quot;&gt;Parent&lt;br&gt;&amp;nbsp;referencing&lt;/span&gt;&lt;/font&gt;" style="text;html=1;align=center;verticalAlign=middle;resizable=0;points=[];autosize=1;strokeColor=none;fillColor=none;fontSize=16;fontColor=#FF0080;" parent="1" vertex="1">
                    <mxGeometry x="215" y="250" width="100" height="50" as="geometry"/>
                </mxCell>
                <mxCell id="41" value="&lt;font color=&quot;#ff33ff&quot;&gt;userID&lt;br&gt;taskID&lt;/font&gt;" style="rounded=1;whiteSpace=wrap;html=1;fontSize=15;fontColor=#9933FF;" parent="1" vertex="1">
                    <mxGeometry x="380" y="410" width="100" height="40" as="geometry"/>
                </mxCell>
                <mxCell id="42" value="&lt;font color=&quot;#006600&quot;&gt;P&lt;/font&gt;" style="ellipse;whiteSpace=wrap;html=1;aspect=fixed;fontSize=15;fontColor=#FF33FF;fillStyle=auto;fillColor=#FFFFFF;" parent="1" vertex="1">
                    <mxGeometry x="30" y="440" width="20" height="20" as="geometry"/>
                </mxCell>
                <mxCell id="43" value="&lt;font color=&quot;#009900&quot;&gt;C&lt;/font&gt;" style="ellipse;whiteSpace=wrap;html=1;aspect=fixed;fontSize=15;fontColor=#FF33FF;fillColor=#FFFFFF;" parent="1" vertex="1">
                    <mxGeometry x="30" y="470" width="20" height="20" as="geometry"/>
                </mxCell>
                <mxCell id="46" value="&lt;font color=&quot;#009900&quot;&gt;Parent&lt;/font&gt;" style="text;html=1;align=center;verticalAlign=middle;resizable=0;points=[];autosize=1;strokeColor=none;fillColor=none;fontSize=15;fontColor=#33FF33;" parent="1" vertex="1">
                    <mxGeometry x="50" y="435" width="70" height="30" as="geometry"/>
                </mxCell>
                <mxCell id="47" value="&lt;font color=&quot;#009900&quot;&gt;Child&lt;/font&gt;" style="text;html=1;align=center;verticalAlign=middle;resizable=0;points=[];autosize=1;strokeColor=none;fillColor=none;fontSize=15;fontColor=#33FF33;" parent="1" vertex="1">
                    <mxGeometry x="50" y="465" width="60" height="30" as="geometry"/>
                </mxCell>
                <mxCell id="56" value="&lt;font color=&quot;#009900&quot;&gt;C&lt;/font&gt;" style="ellipse;whiteSpace=wrap;html=1;aspect=fixed;fontSize=15;fontColor=#FF33FF;fillColor=#FFFFFF;" parent="1" vertex="1">
                    <mxGeometry x="400" y="300" width="20" height="20" as="geometry"/>
                </mxCell>
                <mxCell id="57" value="&lt;font color=&quot;#009900&quot;&gt;C&lt;/font&gt;" style="ellipse;whiteSpace=wrap;html=1;aspect=fixed;fontSize=15;fontColor=#FF33FF;fillColor=#FFFFFF;" parent="1" vertex="1">
                    <mxGeometry x="530" y="190" width="20" height="20" as="geometry"/>
                </mxCell>
                <mxCell id="58" value="&lt;font color=&quot;#009900&quot;&gt;C&lt;/font&gt;" style="ellipse;whiteSpace=wrap;html=1;aspect=fixed;fontSize=15;fontColor=#FF33FF;fillColor=#FFFFFF;" parent="1" vertex="1">
                    <mxGeometry x="295" y="360" width="20" height="20" as="geometry"/>
                </mxCell>
                <mxCell id="59" value="&lt;font color=&quot;#006600&quot;&gt;P&lt;/font&gt;" style="ellipse;whiteSpace=wrap;html=1;aspect=fixed;fontSize=15;fontColor=#FF33FF;fillStyle=auto;fillColor=#FFFFFF;" parent="1" vertex="1">
                    <mxGeometry x="85" y="220" width="20" height="20" as="geometry"/>
                </mxCell>
                <mxCell id="60" value="&lt;font color=&quot;#006600&quot;&gt;P&lt;/font&gt;" style="ellipse;whiteSpace=wrap;html=1;aspect=fixed;fontSize=15;fontColor=#FF33FF;fillStyle=auto;fillColor=#FFFFFF;" parent="1" vertex="1">
                    <mxGeometry x="400" y="215" width="20" height="20" as="geometry"/>
                </mxCell>
                <mxCell id="62" value="&lt;font color=&quot;#006600&quot;&gt;P&lt;/font&gt;" style="ellipse;whiteSpace=wrap;html=1;aspect=fixed;fontSize=15;fontColor=#FF33FF;fillStyle=auto;fillColor=#FFFFFF;" parent="1" vertex="1">
                    <mxGeometry x="630" y="190" width="20" height="20" as="geometry"/>
                </mxCell>
                <mxCell id="63" value="&lt;b&gt;&lt;font color=&quot;#000000&quot; style=&quot;font-size: 20px;&quot;&gt;Clients&lt;/font&gt;&lt;/b&gt;" style="shape=ext;double=1;rounded=0;whiteSpace=wrap;html=1;fillColor=#0050ef;fontColor=#ffffff;strokeColor=#001DBC;" vertex="1" parent="1">
                    <mxGeometry x="660" y="340" width="170" height="60" as="geometry"/>
                </mxCell>
                <mxCell id="68" value="&lt;font color=&quot;#9933ff&quot;&gt;&lt;span style=&quot;font-size: 14px;&quot;&gt;Parent &lt;br&gt;referencing&lt;/span&gt;&lt;/font&gt;" style="text;html=1;align=center;verticalAlign=middle;resizable=0;points=[];autosize=1;strokeColor=none;fillColor=none;fontSize=16;fontColor=#FF0080;" vertex="1" parent="1">
                    <mxGeometry x="550" y="110" width="90" height="50" as="geometry"/>
                </mxCell>
                <mxCell id="69" value="" style="endArrow=classic;startArrow=classic;html=1;strokeWidth=4;fontSize=20;fontColor=#000000;curved=1;exitX=0.5;exitY=0;exitDx=0;exitDy=0;entryX=0.5;entryY=1;entryDx=0;entryDy=0;shadow=0;" edge="1" parent="1" source="63" target="6">
                    <mxGeometry width="50" height="50" relative="1" as="geometry">
                        <mxPoint x="536" y="280.0000000000001" as="sourcePoint"/>
                        <mxPoint x="696" y="280.0000000000001" as="targetPoint"/>
                    </mxGeometry>
                </mxCell>
            </root>
        </mxGraphModel>
    </diagram>
</mxfile>